<?xml version="1.0" standalone="no"?>
<!DOCTYPE svg PUBLIC "-//W3C//DTD SVG 20010904//EN"
 "http://www.w3.org/TR/2001/REC-SVG-20010904/DTD/svg10.dtd">
<svg version="1.0" xmlns="http://www.w3.org/2000/svg" viewBox="0 0 1045 298">
<g style="height: 100%; width: 100%">
<image href="car.png" height="100%" width="100%"/>
<polygon points="14.040000000000001,8.100000000000001 38.61,8.100000000000001 41.040000000000006,10.530000000000001 41.040000000000006,35.1 38.61,37.53 14.040000000000001,37.53 11.610000000000001,35.1 11.610000000000001,10.530000000000001" fill="#3b3c3e" />
<polygon points="43.470000000000006,8.100000000000001 68.04,8.100000000000001 70.47,10.530000000000001 70.47,35.1 68.04,37.53 43.470000000000006,37.53 41.040000000000006,35.1 41.040000000000006,10.530000000000001" fill="#3b3c3e" />
<polygon points="14.040000000000001,37.53 38.61,37.53 41.040000000000006,39.96 41.040000000000006,64.53 38.61,66.96000000000001 14.040000000000001,66.96000000000001 11.610000000000001,64.53 11.610000000000001,39.96" fill="#3b3c3e" />
<polygon points="43.470000000000006,37.53 68.04,37.53 70.47,39.96 70.47,64.53 68.04,66.96000000000001 43.470000000000006,66.96000000000001 41.040000000000006,64.53 41.040000000000006,39.96" fill="#3b3c3e" />
<polygon points="76.14,8.100000000000001 100.71000000000001,8.100000000000001 103.14,10.530000000000001 103.14,35.1 100.71000000000001,37.53 76.14,37.53 73.71000000000001,35.1 73.71000000000001,10.530000000000001" fill="#3b3c3e" />
<polygon points="105.57000000000001,8.100000000000001 130.14000000000001,8.100000000000001 132.57000000000002,10.530000000000001 132.57000000000002,35.1 130.14000000000001,37.53 105.57000000000001,37.53 103.14,35.1 103.14,10.530000000000001" fill="#3b3c3e" />
<polygon points="135.0,8.100000000000001 159.57000000000002,8.100000000000001 162.0,10.530000000000001 162.0,35.1 159.57000000000002,37.53 135.0,37.53 132.57000000000002,35.1 132.57000000000002,10.530000000000001" fill="#3b3c3e" />
<polygon points="76.14,37.53 100.71000000000001,37.53 103.14,39.96 103.14,64.53 100.71000000000001,66.96000000000001 76.14,66.96000000000001 73.71000000000001,64.53 73.71000000000001,39.96" fill="#3b3c3e" />
<polygon points="105.57000000000001,37.53 130.14000000000001,37.53 132.57000000000002,39.96 132.57000000000002,64.53 130.14000000000001,66.96000000000001 105.57000000000001,66.96000000000001 103.14,64.53 103.14,39.96" fill="#3b3c3e" />
<polygon points="135.0,37.53 159.57000000000002,37.53 162.0,39.96 162.0,64.53 159.57000000000002,66.96000000000001 135.0,66.96000000000001 132.57000000000002,64.53 132.57000000000002,39.96" fill="#3b3c3e" />
<polygon points="167.67000000000002,8.100000000000001 192.24,8.100000000000001 194.67000000000002,10.530000000000001 194.67000000000002,35.1 192.24,37.53 167.67000000000002,37.53 165.24,35.1 165.24,10.530000000000001" fill="#3b3c3e" />
<polygon points="197.10000000000002,8.100000000000001 221.67000000000002,8.100000000000001 224.10000000000002,10.530000000000001 224.10000000000002,35.1 221.67000000000002,37.53 197.10000000000002,37.53 194.67000000000002,35.1 194.67000000000002,10.530000000000001" fill="#3b3c3e" />
<polygon points="226.53,8.100000000000001 251.10000000000002,8.100000000000001 253.53000000000003,10.530000000000001 253.53000000000003,35.1 251.10000000000002,37.53 226.53,37.53 224.10000000000002,35.1 224.10000000000002,10.530000000000001" fill="#3b3c3e" />
<polygon points="167.67000000000002,37.53 192.24,37.53 194.67000000000002,39.96 194.67000000000002,64.53 192.24,66.96000000000001 167.67000000000002,66.96000000000001 165.24,64.53 165.24,39.96" fill="#3b3c3e" />
<polygon points="197.10000000000002,37.53 221.67000000000002,37.53 224.10000000000002,39.96 224.10000000000002,64.53 221.67000000000002,66.96000000000001 197.10000000000002,66.96000000000001 194.67000000000002,64.53 194.67000000000002,39.96" fill="#3b3c3e" />
<polygon points="226.53,37.53 251.10000000000002,37.53 253.53000000000003,39.96 253.53000000000003,64.53 251.10000000000002,66.96000000000001 226.53,66.96000000000001 224.10000000000002,64.53 224.10000000000002,39.96" fill="#3b3c3e" />
<polygon points="259.20000000000005,8.100000000000001 283.77000000000004,8.100000000000001 286.20000000000005,10.530000000000001 286.20000000000005,35.1 283.77000000000004,37.53 259.20000000000005,37.53 256.77000000000004,35.1 256.77000000000004,10.530000000000001" fill="#3b3c3e" />
<polygon points="288.63,8.100000000000001 313.20000000000005,8.100000000000001 315.63,10.530000000000001 315.63,35.1 313.20000000000005,37.53 288.63,37.53 286.20000000000005,35.1 286.20000000000005,10.530000000000001" fill="#3b3c3e" />
<polygon points="318.06,8.100000000000001 342.63,8.100000000000001 345.06,10.530000000000001 345.06,35.1 342.63,37.53 318.06,37.53 315.63,35.1 315.63,10.530000000000001" fill="#3b3c3e" />
<polygon points="259.20000000000005,37.53 283.77000000000004,37.53 286.20000000000005,39.96 286.20000000000005,64.53 283.77000000000004,66.96000000000001 259.20000000000005,66.96000000000001 256.77000000000004,64.53 256.77000000000004,39.96" fill="#3b3c3e" />
<polygon points="288.63,37.53 313.20000000000005,37.53 315.63,39.96 315.63,64.53 313.20000000000005,66.96000000000001 288.63,66.96000000000001 286.20000000000005,64.53 286.20000000000005,39.96" fill="#3b3c3e" />
<polygon points="318.06,37.53 342.63,37.53 345.06,39.96 345.06,64.53 342.63,66.96000000000001 318.06,66.96000000000001 315.63,64.53 315.63,39.96" fill="#3b3c3e" />
<polygon points="350.73,8.100000000000001 375.3,8.100000000000001 377.73,10.530000000000001 377.73,35.1 375.3,37.53 350.73,37.53 348.3,35.1 348.3,10.530000000000001" fill="#3b3c3e" />
<polygon points="380.16,8.100000000000001 404.73,8.100000000000001 407.16,10.530000000000001 407.16,35.1 404.73,37.53 380.16,37.53 377.73,35.1 377.73,10.530000000000001" fill="#3b3c3e" />
<polygon points="409.59000000000003,8.100000000000001 434.16,8.100000000000001 436.59000000000003,10.530000000000001 436.59000000000003,35.1 434.16,37.53 409.59000000000003,37.53 407.16,35.1 407.16,10.530000000000001" fill="#3b3c3e" />
<polygon points="350.73,37.53 375.3,37.53 377.73,39.96 377.73,64.53 375.3,66.96000000000001 350.73,66.96000000000001 348.3,64.53 348.3,39.96" fill="#3b3c3e" />
<polygon points="380.16,37.53 404.73,37.53 407.16,39.96 407.16,64.53 404.73,66.96000000000001 380.16,66.96000000000001 377.73,64.53 377.73,39.96" fill="#3b3c3e" />
<polygon points="409.59000000000003,37.53 434.16,37.53 436.59000000000003,39.96 436.59000000000003,64.53 434.16,66.96000000000001 409.59000000000003,66.96000000000001 407.16,64.53 407.16,39.96" fill="#3b3c3e" />
<polygon points="442.26000000000005,8.100000000000001 466.83000000000004,8.100000000000001 469.26000000000005,10.530000000000001 469.26000000000005,35.1 466.83000000000004,37.53 442.26000000000005,37.53 439.83000000000004,35.1 439.83000000000004,10.530000000000001" fill="#3b3c3e" />
<polygon points="471.69000000000005,8.100000000000001 496.26000000000005,8.100000000000001 498.69000000000005,10.530000000000001 498.69000000000005,35.1 496.26000000000005,37.53 471.69000000000005,37.53 469.26000000000005,35.1 469.26000000000005,10.530000000000001" fill="#3b3c3e" />
<polygon points="501.12,8.100000000000001 525.69,8.100000000000001 528.12,10.530000000000001 528.12,35.1 525.69,37.53 501.12,37.53 498.69000000000005,35.1 498.69000000000005,10.530000000000001" fill="#3b3c3e" />
<polygon points="442.26000000000005,37.53 466.83000000000004,37.53 469.26000000000005,39.96 469.26000000000005,64.53 466.83000000000004,66.96000000000001 442.26000000000005,66.96000000000001 439.83000000000004,64.53 439.83000000000004,39.96" fill="#3b3c3e" />
<polygon points="471.69000000000005,37.53 496.26000000000005,37.53 498.69000000000005,39.96 498.69000000000005,64.53 496.26000000000005,66.96000000000001 471.69000000000005,66.96000000000001 469.26000000000005,64.53 469.26000000000005,39.96" fill="#3b3c3e" />
<polygon points="501.12,37.53 525.69,37.53 528.12,39.96 528.12,64.53 525.69,66.96000000000001 501.12,66.96000000000001 498.69000000000005,64.53 498.69000000000005,39.96" fill="#3b3c3e" />
<polygon points="533.7900000000001,8.100000000000001 558.36,8.100000000000001 560.7900000000001,10.530000000000001 560.7900000000001,35.1 558.36,37.53 533.7900000000001,37.53 531.36,35.1 531.36,10.530000000000001" fill="#3b3c3e" />
<polygon points="563.22,8.100000000000001 587.7900000000001,8.100000000000001 590.22,10.530000000000001 590.22,35.1 587.7900000000001,37.53 563.22,37.53 560.7900000000001,35.1 560.7900000000001,10.530000000000001" fill="#3b3c3e" />
<polygon points="592.6500000000001,8.100000000000001 617.22,8.100000000000001 619.6500000000001,10.530000000000001 619.6500000000001,35.1 617.22,37.53 592.6500000000001,37.53 590.22,35.1 590.22,10.530000000000001" fill="#3b3c3e" />
<polygon points="533.7900000000001,37.53 558.36,37.53 560.7900000000001,39.96 560.7900000000001,64.53 558.36,66.96000000000001 533.7900000000001,66.96000000000001 531.36,64.53 531.36,39.96" fill="#3b3c3e" />
<polygon points="563.22,37.53 587.7900000000001,37.53 590.22,39.96 590.22,64.53 587.7900000000001,66.96000000000001 563.22,66.96000000000001 560.7900000000001,64.53 560.7900000000001,39.96" fill="#3b3c3e" />
<polygon points="592.6500000000001,37.53 617.22,37.53 619.6500000000001,39.96 619.6500000000001,64.53 617.22,66.96000000000001 592.6500000000001,66.96000000000001 590.22,64.53 590.22,39.96" fill="#3b3c3e" />
<polygon points="625.32,8.100000000000001 649.89,8.100000000000001 652.32,10.530000000000001 652.32,35.1 649.89,37.53 625.32,37.53 622.89,35.1 622.89,10.530000000000001" fill="#3b3c3e" />
<polygon points="654.75,8.100000000000001 679.32,8.100000000000001 681.75,10.530000000000001 681.75,35.1 679.32,37.53 654.75,37.53 652.32,35.1 652.32,10.530000000000001" fill="#3b3c3e" />
<polygon points="684.1800000000001,8.100000000000001 708.75,8.100000000000001 711.1800000000001,10.530000000000001 711.1800000000001,35.1 708.75,37.53 684.1800000000001,37.53 681.75,35.1 681.75,10.530000000000001" fill="#3b3c3e" />
<polygon points="625.32,37.53 649.89,37.53 652.32,39.96 652.32,64.53 649.89,66.96000000000001 625.32,66.96000000000001 622.89,64.53 622.89,39.96" fill="#3b3c3e" />
<polygon points="654.75,37.53 679.32,37.53 681.75,39.96 681.75,64.53 679.32,66.96000000000001 654.75,66.96000000000001 652.32,64.53 652.32,39.96" fill="#3b3c3e" />
<polygon points="684.1800000000001,37.53 708.75,37.53 711.1800000000001,39.96 711.1800000000001,64.53 708.75,66.96000000000001 684.1800000000001,66.96000000000001 681.75,64.53 681.75,39.96" fill="#3b3c3e" />
<polygon points="716.85,8.100000000000001 741.4200000000001,8.100000000000001 743.85,10.530000000000001 743.85,35.1 741.4200000000001,37.53 716.85,37.53 714.4200000000001,35.1 714.4200000000001,10.530000000000001" fill="#3b3c3e" />
<polygon points="746.2800000000001,8.100000000000001 770.85,8.100000000000001 773.2800000000001,10.530000000000001 773.2800000000001,35.1 770.85,37.53 746.2800000000001,37.53 743.85,35.1 743.85,10.530000000000001" fill="#3b3c3e" />
<polygon points="775.71,8.100000000000001 800.2800000000001,8.100000000000001 802.71,10.530000000000001 802.71,35.1 800.2800000000001,37.53 775.71,37.53 773.2800000000001,35.1 773.2800000000001,10.530000000000001" fill="#3b3c3e" />
<polygon points="716.85,37.53 741.4200000000001,37.53 743.85,39.96 743.85,64.53 741.4200000000001,66.96000000000001 716.85,66.96000000000001 714.4200000000001,64.53 714.4200000000001,39.96" fill="#3b3c3e" />
<polygon points="746.2800000000001,37.53 770.85,37.53 773.2800000000001,39.96 773.2800000000001,64.53 770.85,66.96000000000001 746.2800000000001,66.96000000000001 743.85,64.53 743.85,39.96" fill="#3b3c3e" />
<polygon points="775.71,37.53 800.2800000000001,37.53 802.71,39.96 802.71,64.53 800.2800000000001,66.96000000000001 775.71,66.96000000000001 773.2800000000001,64.53 773.2800000000001,39.96" fill="#3b3c3e" />
<polygon points="808.3800000000001,8.100000000000001 832.95,8.100000000000001 835.3800000000001,10.530000000000001 835.3800000000001,35.1 832.95,37.53 808.3800000000001,37.53 805.95,35.1 805.95,10.530000000000001" fill="#3b3c3e" />
<polygon points="837.8100000000001,8.100000000000001 862.3800000000001,8.100000000000001 864.8100000000001,10.530000000000001 864.8100000000001,35.1 862.3800000000001,37.53 837.8100000000001,37.53 835.3800000000001,35.1 835.3800000000001,10.530000000000001" fill="#3b3c3e" />
<polygon points="867.24,8.100000000000001 891.8100000000001,8.100000000000001 894.24,10.530000000000001 894.24,35.1 891.8100000000001,37.53 867.24,37.53 864.8100000000001,35.1 864.8100000000001,10.530000000000001" fill="#3b3c3e" />
<polygon points="808.3800000000001,37.53 832.95,37.53 835.3800000000001,39.96 835.3800000000001,64.53 832.95,66.96000000000001 808.3800000000001,66.96000000000001 805.95,64.53 805.95,39.96" fill="#3b3c3e" />
<polygon points="837.8100000000001,37.53 862.3800000000001,37.53 864.8100000000001,39.96 864.8100000000001,64.53 862.3800000000001,66.96000000000001 837.8100000000001,66.96000000000001 835.3800000000001,64.53 835.3800000000001,39.96" fill="#3b3c3e" />
<polygon points="867.24,37.53 891.8100000000001,37.53 894.24,39.96 894.24,64.53 891.8100000000001,66.96000000000001 867.24,66.96000000000001 864.8100000000001,64.53 864.8100000000001,39.96" fill="#3b3c3e" />
<polygon points="14.040000000000001,70.2 38.61,70.2 41.040000000000006,72.63000000000001 41.040000000000006,97.2 38.61,99.63000000000001 14.040000000000001,99.63000000000001 11.610000000000001,97.2 11.610000000000001,72.63000000000001" fill="#3b3c3e" />
<polygon points="43.470000000000006,70.2 68.04,70.2 70.47,72.63000000000001 70.47,97.2 68.04,99.63000000000001 43.470000000000006,99.63000000000001 41.040000000000006,97.2 41.040000000000006,72.63000000000001" fill="#3b3c3e" />
<polygon points="14.040000000000001,99.63000000000001 38.61,99.63000000000001 41.040000000000006,102.06 41.040000000000006,126.63000000000001 38.61,129.06 14.040000000000001,129.06 11.610000000000001,126.63000000000001 11.610000000000001,102.06" fill="#3b3c3e" />
<polygon points="43.470000000000006,99.63000000000001 68.04,99.63000000000001 70.47,102.06 70.47,126.63000000000001 68.04,129.06 43.470000000000006,129.06 41.040000000000006,126.63000000000001 41.040000000000006,102.06" fill="#3b3c3e" />
<polygon points="76.14,70.2 100.71000000000001,70.2 103.14,72.63000000000001 103.14,97.2 100.71000000000001,99.63000000000001 76.14,99.63000000000001 73.71000000000001,97.2 73.71000000000001,72.63000000000001" fill="#3b3c3e" />
<polygon points="105.57000000000001,70.2 130.14000000000001,70.2 132.57000000000002,72.63000000000001 132.57000000000002,97.2 130.14000000000001,99.63000000000001 105.57000000000001,99.63000000000001 103.14,97.2 103.14,72.63000000000001" fill="#3b3c3e" />
<polygon points="135.0,70.2 159.57000000000002,70.2 162.0,72.63000000000001 162.0,97.2 159.57000000000002,99.63000000000001 135.0,99.63000000000001 132.57000000000002,97.2 132.57000000000002,72.63000000000001" fill="#3b3c3e" />
<polygon points="76.14,99.63000000000001 100.71000000000001,99.63000000000001 103.14,102.06 103.14,126.63000000000001 100.71000000000001,129.06 76.14,129.06 73.71000000000001,126.63000000000001 73.71000000000001,102.06" fill="#3b3c3e" />
<polygon points="105.57000000000001,99.63000000000001 130.14000000000001,99.63000000000001 132.57000000000002,102.06 132.57000000000002,126.63000000000001 130.14000000000001,129.06 105.57000000000001,129.06 103.14,126.63000000000001 103.14,102.06" fill="#3b3c3e" />
<polygon points="135.0,99.63000000000001 159.57000000000002,99.63000000000001 162.0,102.06 162.0,126.63000000000001 159.57000000000002,129.06 135.0,129.06 132.57000000000002,126.63000000000001 132.57000000000002,102.06" fill="#3b3c3e" />
<polygon points="167.67000000000002,70.2 192.24,70.2 194.67000000000002,72.63000000000001 194.67000000000002,97.2 192.24,99.63000000000001 167.67000000000002,99.63000000000001 165.24,97.2 165.24,72.63000000000001" fill="#3b3c3e" />
<polygon points="197.10000000000002,70.2 221.67000000000002,70.2 224.10000000000002,72.63000000000001 224.10000000000002,97.2 221.67000000000002,99.63000000000001 197.10000000000002,99.63000000000001 194.67000000000002,97.2 194.67000000000002,72.63000000000001" fill="#3b3c3e" />
<polygon points="226.53,70.2 251.10000000000002,70.2 253.53000000000003,72.63000000000001 253.53000000000003,97.2 251.10000000000002,99.63000000000001 226.53,99.63000000000001 224.10000000000002,97.2 224.10000000000002,72.63000000000001" fill="#3b3c3e" />
<polygon points="167.67000000000002,99.63000000000001 192.24,99.63000000000001 194.67000000000002,102.06 194.67000000000002,126.63000000000001 192.24,129.06 167.67000000000002,129.06 165.24,126.63000000000001 165.24,102.06" fill="#3b3c3e" />
<polygon points="197.10000000000002,99.63000000000001 221.67000000000002,99.63000000000001 224.10000000000002,102.06 224.10000000000002,126.63000000000001 221.67000000000002,129.06 197.10000000000002,129.06 194.67000000000002,126.63000000000001 194.67000000000002,102.06" fill="#3b3c3e" />
<polygon points="226.53,99.63000000000001 251.10000000000002,99.63000000000001 253.53000000000003,102.06 253.53000000000003,126.63000000000001 251.10000000000002,129.06 226.53,129.06 224.10000000000002,126.63000000000001 224.10000000000002,102.06" fill="#3b3c3e" />
<polygon points="259.20000000000005,70.2 283.77000000000004,70.2 286.20000000000005,72.63000000000001 286.20000000000005,97.2 283.77000000000004,99.63000000000001 259.20000000000005,99.63000000000001 256.77000000000004,97.2 256.77000000000004,72.63000000000001" fill="#3b3c3e" />
<polygon points="288.63,70.2 313.20000000000005,70.2 315.63,72.63000000000001 315.63,97.2 313.20000000000005,99.63000000000001 288.63,99.63000000000001 286.20000000000005,97.2 286.20000000000005,72.63000000000001" fill="#3b3c3e" />
<polygon points="318.06,70.2 342.63,70.2 345.06,72.63000000000001 345.06,97.2 342.63,99.63000000000001 318.06,99.63000000000001 315.63,97.2 315.63,72.63000000000001" fill="#3b3c3e" />
<polygon points="259.20000000000005,99.63000000000001 283.77000000000004,99.63000000000001 286.20000000000005,102.06 286.20000000000005,126.63000000000001 283.77000000000004,129.06 259.20000000000005,129.06 256.77000000000004,126.63000000000001 256.77000000000004,102.06" fill="#3b3c3e" />
<polygon points="288.63,99.63000000000001 313.20000000000005,99.63000000000001 315.63,102.06 315.63,126.63000000000001 313.20000000000005,129.06 288.63,129.06 286.20000000000005,126.63000000000001 286.20000000000005,102.06" fill="#3b3c3e" />
<polygon points="318.06,99.63000000000001 342.63,99.63000000000001 345.06,102.06 345.06,126.63000000000001 342.63,129.06 318.06,129.06 315.63,126.63000000000001 315.63,102.06" fill="#3b3c3e" />
<polygon points="350.73,70.2 375.3,70.2 377.73,72.63000000000001 377.73,97.2 375.3,99.63000000000001 350.73,99.63000000000001 348.3,97.2 348.3,72.63000000000001" fill="#3b3c3e" />
<polygon points="380.16,70.2 404.73,70.2 407.16,72.63000000000001 407.16,97.2 404.73,99.63000000000001 380.16,99.63000000000001 377.73,97.2 377.73,72.63000000000001" fill="#3b3c3e" />
<polygon points="409.59000000000003,70.2 434.16,70.2 436.59000000000003,72.63000000000001 436.59000000000003,97.2 434.16,99.63000000000001 409.59000000000003,99.63000000000001 407.16,97.2 407.16,72.63000000000001" fill="#3b3c3e" />
<polygon points="350.73,99.63000000000001 375.3,99.63000000000001 377.73,102.06 377.73,126.63000000000001 375.3,129.06 350.73,129.06 348.3,126.63000000000001 348.3,102.06" fill="#3b3c3e" />
<polygon points="380.16,99.63000000000001 404.73,99.63000000000001 407.16,102.06 407.16,126.63000000000001 404.73,129.06 380.16,129.06 377.73,126.63000000000001 377.73,102.06" fill="#3b3c3e" />
<polygon points="409.59000000000003,99.63000000000001 434.16,99.63000000000001 436.59000000000003,102.06 436.59000000000003,126.63000000000001 434.16,129.06 409.59000000000003,129.06 407.16,126.63000000000001 407.16,102.06" fill="#3b3c3e" />
<polygon points="442.26000000000005,70.2 466.83000000000004,70.2 469.26000000000005,72.63000000000001 469.26000000000005,97.2 466.83000000000004,99.63000000000001 442.26000000000005,99.63000000000001 439.83000000000004,97.2 439.83000000000004,72.63000000000001" fill="#3b3c3e" />
<polygon points="471.69000000000005,70.2 496.26000000000005,70.2 498.69000000000005,72.63000000000001 498.69000000000005,97.2 496.26000000000005,99.63000000000001 471.69000000000005,99.63000000000001 469.26000000000005,97.2 469.26000000000005,72.63000000000001" fill="#3b3c3e" />
<polygon points="501.12,70.2 525.69,70.2 528.12,72.63000000000001 528.12,97.2 525.69,99.63000000000001 501.12,99.63000000000001 498.69000000000005,97.2 498.69000000000005,72.63000000000001" fill="#3b3c3e" />
<polygon points="442.26000000000005,99.63000000000001 466.83000000000004,99.63000000000001 469.26000000000005,102.06 469.26000000000005,126.63000000000001 466.83000000000004,129.06 442.26000000000005,129.06 439.83000000000004,126.63000000000001 439.83000000000004,102.06" fill="#3b3c3e" />
<polygon points="471.69000000000005,99.63000000000001 496.26000000000005,99.63000000000001 498.69000000000005,102.06 498.69000000000005,126.63000000000001 496.26000000000005,129.06 471.69000000000005,129.06 469.26000000000005,126.63000000000001 469.26000000000005,102.06" fill="#3b3c3e" />
<polygon points="501.12,99.63000000000001 525.69,99.63000000000001 528.12,102.06 528.12,126.63000000000001 525.69,129.06 501.12,129.06 498.69000000000005,126.63000000000001 498.69000000000005,102.06" fill="#3b3c3e" />
<polygon points="533.7900000000001,70.2 558.36,70.2 560.7900000000001,72.63000000000001 560.7900000000001,97.2 558.36,99.63000000000001 533.7900000000001,99.63000000000001 531.36,97.2 531.36,72.63000000000001" fill="#3b3c3e" />
<polygon points="563.22,70.2 587.7900000000001,70.2 590.22,72.63000000000001 590.22,97.2 587.7900000000001,99.63000000000001 563.22,99.63000000000001 560.7900000000001,97.2 560.7900000000001,72.63000000000001" fill="#3b3c3e" />
<polygon points="592.6500000000001,70.2 617.22,70.2 619.6500000000001,72.63000000000001 619.6500000000001,97.2 617.22,99.63000000000001 592.6500000000001,99.63000000000001 590.22,97.2 590.22,72.63000000000001" fill="#3b3c3e" />
<polygon points="533.7900000000001,99.63000000000001 558.36,99.63000000000001 560.7900000000001,102.06 560.7900000000001,126.63000000000001 558.36,129.06 533.7900000000001,129.06 531.36,126.63000000000001 531.36,102.06" fill="#3b3c3e" />
<polygon points="563.22,99.63000000000001 587.7900000000001,99.63000000000001 590.22,102.06 590.22,126.63000000000001 587.7900000000001,129.06 563.22,129.06 560.7900000000001,126.63000000000001 560.7900000000001,102.06" fill="#3b3c3e" />
<polygon points="592.6500000000001,99.63000000000001 617.22,99.63000000000001 619.6500000000001,102.06 619.6500000000001,126.63000000000001 617.22,129.06 592.6500000000001,129.06 590.22,126.63000000000001 590.22,102.06" fill="#3b3c3e" />
<polygon points="625.32,70.2 649.89,70.2 652.32,72.63000000000001 652.32,97.2 649.89,99.63000000000001 625.32,99.63000000000001 622.89,97.2 622.89,72.63000000000001" fill="#3b3c3e" />
<polygon points="654.75,70.2 679.32,70.2 681.75,72.63000000000001 681.75,97.2 679.32,99.63000000000001 654.75,99.63000000000001 652.32,97.2 652.32,72.63000000000001" fill="#3b3c3e" />
<polygon points="684.1800000000001,70.2 708.75,70.2 711.1800000000001,72.63000000000001 711.1800000000001,97.2 708.75,99.63000000000001 684.1800000000001,99.63000000000001 681.75,97.2 681.75,72.63000000000001" fill="#3b3c3e" />
<polygon points="625.32,99.63000000000001 649.89,99.63000000000001 652.32,102.06 652.32,126.63000000000001 649.89,129.06 625.32,129.06 622.89,126.63000000000001 622.89,102.06" fill="#3b3c3e" />
<polygon points="654.75,99.63000000000001 679.32,99.63000000000001 681.75,102.06 681.75,126.63000000000001 679.32,129.06 654.75,129.06 652.32,126.63000000000001 652.32,102.06" fill="#3b3c3e" />
<polygon points="684.1800000000001,99.63000000000001 708.75,99.63000000000001 711.1800000000001,102.06 711.1800000000001,126.63000000000001 708.75,129.06 684.1800000000001,129.06 681.75,126.63000000000001 681.75,102.06" fill="#3b3c3e" />
<polygon points="716.85,70.2 741.4200000000001,70.2 743.85,72.63000000000001 743.85,97.2 741.4200000000001,99.63000000000001 716.85,99.63000000000001 714.4200000000001,97.2 714.4200000000001,72.63000000000001" fill="#3b3c3e" />
<polygon points="746.2800000000001,70.2 770.85,70.2 773.2800000000001,72.63000000000001 773.2800000000001,97.2 770.85,99.63000000000001 746.2800000000001,99.63000000000001 743.85,97.2 743.85,72.63000000000001" fill="#3b3c3e" />
<polygon points="775.71,70.2 800.2800000000001,70.2 802.71,72.63000000000001 802.71,97.2 800.2800000000001,99.63000000000001 775.71,99.63000000000001 773.2800000000001,97.2 773.2800000000001,72.63000000000001" fill="#3b3c3e" />
<polygon points="716.85,99.63000000000001 741.4200000000001,99.63000000000001 743.85,102.06 743.85,126.63000000000001 741.4200000000001,129.06 716.85,129.06 714.4200000000001,126.63000000000001 714.4200000000001,102.06" fill="#3b3c3e" />
<polygon points="746.2800000000001,99.63000000000001 770.85,99.63000000000001 773.2800000000001,102.06 773.2800000000001,126.63000000000001 770.85,129.06 746.2800000000001,129.06 743.85,126.63000000000001 743.85,102.06" fill="#3b3c3e" />
<polygon points="775.71,99.63000000000001 800.2800000000001,99.63000000000001 802.71,102.06 802.71,126.63000000000001 800.2800000000001,129.06 775.71,129.06 773.2800000000001,126.63000000000001 773.2800000000001,102.06" fill="#3b3c3e" />
<polygon points="808.3800000000001,70.2 832.95,70.2 835.3800000000001,72.63000000000001 835.3800000000001,97.2 832.95,99.63000000000001 808.3800000000001,99.63000000000001 805.95,97.2 805.95,72.63000000000001" fill="#3b3c3e" />
<polygon points="837.8100000000001,70.2 862.3800000000001,70.2 864.8100000000001,72.63000000000001 864.8100000000001,97.2 862.3800000000001,99.63000000000001 837.8100000000001,99.63000000000001 835.3800000000001,97.2 835.3800000000001,72.63000000000001" fill="#3b3c3e" />
<polygon points="867.24,70.2 891.8100000000001,70.2 894.24,72.63000000000001 894.24,97.2 891.8100000000001,99.63000000000001 867.24,99.63000000000001 864.8100000000001,97.2 864.8100000000001,72.63000000000001" fill="#3b3c3e" />
<polygon points="808.3800000000001,99.63000000000001 832.95,99.63000000000001 835.3800000000001,102.06 835.3800000000001,126.63000000000001 832.95,129.06 808.3800000000001,129.06 805.95,126.63000000000001 805.95,102.06" fill="#3b3c3e" />
<polygon points="837.8100000000001,99.63000000000001 862.3800000000001,99.63000000000001 864.8100000000001,102.06 864.8100000000001,126.63000000000001 862.3800000000001,129.06 837.8100000000001,129.06 835.3800000000001,126.63000000000001 835.3800000000001,102.06" fill="#3b3c3e" />
<polygon points="867.24,99.63000000000001 891.8100000000001,99.63000000000001 894.24,102.06 894.24,126.63000000000001 891.8100000000001,129.06 867.24,129.06 864.8100000000001,126.63000000000001 864.8100000000001,102.06" fill="#3b3c3e" />
<polygon points="14.040000000000001,132.3 38.61,132.3 41.040000000000006,134.73000000000002 41.040000000000006,159.3 38.61,161.73000000000002 14.040000000000001,161.73000000000002 11.610000000000001,159.3 11.610000000000001,134.73000000000002" fill="#3b3c3e" />
<polygon points="43.470000000000006,132.3 68.04,132.3 70.47,134.73000000000002 70.47,159.3 68.04,161.73000000000002 43.470000000000006,161.73000000000002 41.040000000000006,159.3 41.040000000000006,134.73000000000002" fill="#3b3c3e" />
<polygon points="76.14,132.3 100.71000000000001,132.3 103.14,134.73000000000002 103.14,159.3 100.71000000000001,161.73000000000002 76.14,161.73000000000002 73.71000000000001,159.3 73.71000000000001,134.73000000000002" fill="#3b3c3e" />
<polygon points="105.57000000000001,132.3 130.14000000000001,132.3 132.57000000000002,134.73000000000002 132.57000000000002,159.3 130.14000000000001,161.73000000000002 105.57000000000001,161.73000000000002 103.14,159.3 103.14,134.73000000000002" fill="#3b3c3e" />
<polygon points="135.0,132.3 159.57000000000002,132.3 162.0,134.73000000000002 162.0,159.3 159.57000000000002,161.73000000000002 135.0,161.73000000000002 132.57000000000002,159.3 132.57000000000002,134.73000000000002" fill="#3b3c3e" />
<polygon points="167.67000000000002,132.3 192.24,132.3 194.67000000000002,134.73000000000002 194.67000000000002,159.3 192.24,161.73000000000002 167.67000000000002,161.73000000000002 165.24,159.3 165.24,134.73000000000002" fill="#3b3c3e" />
<polygon points="197.10000000000002,132.3 221.67000000000002,132.3 224.10000000000002,134.73000000000002 224.10000000000002,159.3 221.67000000000002,161.73000000000002 197.10000000000002,161.73000000000002 194.67000000000002,159.3 194.67000000000002,134.73000000000002" fill="#3b3c3e" />
<polygon points="226.53,132.3 251.10000000000002,132.3 253.53000000000003,134.73000000000002 253.53000000000003,159.3 251.10000000000002,161.73000000000002 226.53,161.73000000000002 224.10000000000002,159.3 224.10000000000002,134.73000000000002" fill="#3b3c3e" />
<polygon points="259.20000000000005,132.3 283.77000000000004,132.3 286.20000000000005,134.73000000000002 286.20000000000005,159.3 283.77000000000004,161.73000000000002 259.20000000000005,161.73000000000002 256.77000000000004,159.3 256.77000000000004,134.73000000000002" fill="#3b3c3e" />
<polygon points="288.63,132.3 313.20000000000005,132.3 315.63,134.73000000000002 315.63,159.3 313.20000000000005,161.73000000000002 288.63,161.73000000000002 286.20000000000005,159.3 286.20000000000005,134.73000000000002" fill="#3b3c3e" />
<polygon points="318.06,132.3 342.63,132.3 345.06,134.73000000000002 345.06,159.3 342.63,161.73000000000002 318.06,161.73000000000002 315.63,159.3 315.63,134.73000000000002" fill="#3b3c3e" />
<polygon points="350.73,132.3 375.3,132.3 377.73,134.73000000000002 377.73,159.3 375.3,161.73000000000002 350.73,161.73000000000002 348.3,159.3 348.3,134.73000000000002" fill="#3b3c3e" />
<polygon points="380.16,132.3 404.73,132.3 407.16,134.73000000000002 407.16,159.3 404.73,161.73000000000002 380.16,161.73000000000002 377.73,159.3 377.73,134.73000000000002" fill="#3b3c3e" />
<polygon points="409.59000000000003,132.3 434.16,132.3 436.59000000000003,134.73000000000002 436.59000000000003,159.3 434.16,161.73000000000002 409.59000000000003,161.73000000000002 407.16,159.3 407.16,134.73000000000002" fill="#3b3c3e" />
<polygon points="442.26000000000005,132.3 466.83000000000004,132.3 469.26000000000005,134.73000000000002 469.26000000000005,159.3 466.83000000000004,161.73000000000002 442.26000000000005,161.73000000000002 439.83000000000004,159.3 439.83000000000004,134.73000000000002" fill="#3b3c3e" />
<polygon points="471.69000000000005,132.3 496.26000000000005,132.3 498.69000000000005,134.73000000000002 498.69000000000005,159.3 496.26000000000005,161.73000000000002 471.69000000000005,161.73000000000002 469.26000000000005,159.3 469.26000000000005,134.73000000000002" fill="#3b3c3e" />
<polygon points="501.12,132.3 525.69,132.3 528.12,134.73000000000002 528.12,159.3 525.69,161.73000000000002 501.12,161.73000000000002 498.69000000000005,159.3 498.69000000000005,134.73000000000002" fill="#3b3c3e" />
<polygon points="533.7900000000001,132.3 558.36,132.3 560.7900000000001,134.73000000000002 560.7900000000001,159.3 558.36,161.73000000000002 533.7900000000001,161.73000000000002 531.36,159.3 531.36,134.73000000000002" fill="#3b3c3e" />
<polygon points="563.22,132.3 587.7900000000001,132.3 590.22,134.73000000000002 590.22,159.3 587.7900000000001,161.73000000000002 563.22,161.73000000000002 560.7900000000001,159.3 560.7900000000001,134.73000000000002" fill="#3b3c3e" />
<polygon points="592.6500000000001,132.3 617.22,132.3 619.6500000000001,134.73000000000002 619.6500000000001,159.3 617.22,161.73000000000002 592.6500000000001,161.73000000000002 590.22,159.3 590.22,134.73000000000002" fill="#3b3c3e" />
<polygon points="625.32,132.3 649.89,132.3 652.32,134.73000000000002 652.32,159.3 649.89,161.73000000000002 625.32,161.73000000000002 622.89,159.3 622.89,134.73000000000002" fill="#3b3c3e" />
<polygon points="654.75,132.3 679.32,132.3 681.75,134.73000000000002 681.75,159.3 679.32,161.73000000000002 654.75,161.73000000000002 652.32,159.3 652.32,134.73000000000002" fill="#3b3c3e" />
<polygon points="684.1800000000001,132.3 708.75,132.3 711.1800000000001,134.73000000000002 711.1800000000001,159.3 708.75,161.73000000000002 684.1800000000001,161.73000000000002 681.75,159.3 681.75,134.73000000000002" fill="#3b3c3e" />
<polygon points="716.85,132.3 741.4200000000001,132.3 743.85,134.73000000000002 743.85,159.3 741.4200000000001,161.73000000000002 716.85,161.73000000000002 714.4200000000001,159.3 714.4200000000001,134.73000000000002" fill="#3b3c3e" />
<polygon points="746.2800000000001,132.3 770.85,132.3 773.2800000000001,134.73000000000002 773.2800000000001,159.3 770.85,161.73000000000002 746.2800000000001,161.73000000000002 743.85,159.3 743.85,134.73000000000002" fill="#3b3c3e" />
<polygon points="775.71,132.3 800.2800000000001,132.3 802.71,134.73000000000002 802.71,159.3 800.2800000000001,161.73000000000002 775.71,161.73000000000002 773.2800000000001,159.3 773.2800000000001,134.73000000000002" fill="#3b3c3e" />
<polygon points="808.3800000000001,132.3 832.95,132.3 835.3800000000001,134.73000000000002 835.3800000000001,159.3 832.95,161.73000000000002 808.3800000000001,161.73000000000002 805.95,159.3 805.95,134.73000000000002" fill="#3b3c3e" />
<polygon points="837.8100000000001,132.3 862.3800000000001,132.3 864.8100000000001,134.73000000000002 864.8100000000001,159.3 862.3800000000001,161.73000000000002 837.8100000000001,161.73000000000002 835.3800000000001,159.3 835.3800000000001,134.73000000000002" fill="#3b3c3e" />
<polygon points="867.24,132.3 891.8100000000001,132.3 894.24,134.73000000000002 894.24,159.3 891.8100000000001,161.73000000000002 867.24,161.73000000000002 864.8100000000001,159.3 864.8100000000001,134.73000000000002" fill="#3b3c3e" />
<polygon points="14.040000000000001,164.97 38.61,164.97 41.040000000000006,167.4 41.040000000000006,191.97 38.61,194.4 14.040000000000001,194.4 11.610000000000001,191.97 11.610000000000001,167.4" fill="#3b3c3e" />
<polygon points="43.470000000000006,164.97 68.04,164.97 70.47,167.4 70.47,191.97 68.04,194.4 43.470000000000006,194.4 41.040000000000006,191.97 41.040000000000006,167.4" fill="#3b3c3e" />
<polygon points="14.040000000000001,194.4 38.61,194.4 41.040000000000006,196.83 41.040000000000006,221.4 38.61,223.83 14.040000000000001,223.83 11.610000000000001,221.4 11.610000000000001,196.83" fill="#3b3c3e" />
<polygon points="43.470000000000006,194.4 68.04,194.4 70.47,196.83 70.47,221.4 68.04,223.83 43.470000000000006,223.83 41.040000000000006,221.4 41.040000000000006,196.83" fill="#3b3c3e" />
<polygon points="76.14,164.97 100.71000000000001,164.97 103.14,167.4 103.14,191.97 100.71000000000001,194.4 76.14,194.4 73.71000000000001,191.97 73.71000000000001,167.4" fill="#3b3c3e" />
<polygon points="105.57000000000001,164.97 130.14000000000001,164.97 132.57000000000002,167.4 132.57000000000002,191.97 130.14000000000001,194.4 105.57000000000001,194.4 103.14,191.97 103.14,167.4" fill="#3b3c3e" />
<polygon points="135.0,164.97 159.57000000000002,164.97 162.0,167.4 162.0,191.97 159.57000000000002,194.4 135.0,194.4 132.57000000000002,191.97 132.57000000000002,167.4" fill="#3b3c3e" />
<polygon points="76.14,194.4 100.71000000000001,194.4 103.14,196.83 103.14,221.4 100.71000000000001,223.83 76.14,223.83 73.71000000000001,221.4 73.71000000000001,196.83" fill="#3b3c3e" />
<polygon points="105.57000000000001,194.4 130.14000000000001,194.4 132.57000000000002,196.83 132.57000000000002,221.4 130.14000000000001,223.83 105.57000000000001,223.83 103.14,221.4 103.14,196.83" fill="#3b3c3e" />
<polygon points="135.0,194.4 159.57000000000002,194.4 162.0,196.83 162.0,221.4 159.57000000000002,223.83 135.0,223.83 132.57000000000002,221.4 132.57000000000002,196.83" fill="#3b3c3e" />
<polygon points="167.67000000000002,164.97 192.24,164.97 194.67000000000002,167.4 194.67000000000002,191.97 192.24,194.4 167.67000000000002,194.4 165.24,191.97 165.24,167.4" fill="#3b3c3e" />
<polygon points="197.10000000000002,164.97 221.67000000000002,164.97 224.10000000000002,167.4 224.10000000000002,191.97 221.67000000000002,194.4 197.10000000000002,194.4 194.67000000000002,191.97 194.67000000000002,167.4" fill="#3b3c3e" />
<polygon points="226.53,164.97 251.10000000000002,164.97 253.53000000000003,167.4 253.53000000000003,191.97 251.10000000000002,194.4 226.53,194.4 224.10000000000002,191.97 224.10000000000002,167.4" fill="#3b3c3e" />
<polygon points="167.67000000000002,194.4 192.24,194.4 194.67000000000002,196.83 194.67000000000002,221.4 192.24,223.83 167.67000000000002,223.83 165.24,221.4 165.24,196.83" fill="#3b3c3e" />
<polygon points="197.10000000000002,194.4 221.67000000000002,194.4 224.10000000000002,196.83 224.10000000000002,221.4 221.67000000000002,223.83 197.10000000000002,223.83 194.67000000000002,221.4 194.67000000000002,196.83" fill="#3b3c3e" />
<polygon points="226.53,194.4 251.10000000000002,194.4 253.53000000000003,196.83 253.53000000000003,221.4 251.10000000000002,223.83 226.53,223.83 224.10000000000002,221.4 224.10000000000002,196.83" fill="#3b3c3e" />
<polygon points="259.20000000000005,164.97 283.77000000000004,164.97 286.20000000000005,167.4 286.20000000000005,191.97 283.77000000000004,194.4 259.20000000000005,194.4 256.77000000000004,191.97 256.77000000000004,167.4" fill="#3b3c3e" />
<polygon points="288.63,164.97 313.20000000000005,164.97 315.63,167.4 315.63,191.97 313.20000000000005,194.4 288.63,194.4 286.20000000000005,191.97 286.20000000000005,167.4" fill="#3b3c3e" />
<polygon points="318.06,164.97 342.63,164.97 345.06,167.4 345.06,191.97 342.63,194.4 318.06,194.4 315.63,191.97 315.63,167.4" fill="#3b3c3e" />
<polygon points="259.20000000000005,194.4 283.77000000000004,194.4 286.20000000000005,196.83 286.20000000000005,221.4 283.77000000000004,223.83 259.20000000000005,223.83 256.77000000000004,221.4 256.77000000000004,196.83" fill="#3b3c3e" />
<polygon points="288.63,194.4 313.20000000000005,194.4 315.63,196.83 315.63,221.4 313.20000000000005,223.83 288.63,223.83 286.20000000000005,221.4 286.20000000000005,196.83" fill="#3b3c3e" />
<polygon points="318.06,194.4 342.63,194.4 345.06,196.83 345.06,221.4 342.63,223.83 318.06,223.83 315.63,221.4 315.63,196.83" fill="#3b3c3e" />
<polygon points="350.73,164.97 375.3,164.97 377.73,167.4 377.73,191.97 375.3,194.4 350.73,194.4 348.3,191.97 348.3,167.4" fill="#3b3c3e" />
<polygon points="380.16,164.97 404.73,164.97 407.16,167.4 407.16,191.97 404.73,194.4 380.16,194.4 377.73,191.97 377.73,167.4" fill="#3b3c3e" />
<polygon points="409.59000000000003,164.97 434.16,164.97 436.59000000000003,167.4 436.59000000000003,191.97 434.16,194.4 409.59000000000003,194.4 407.16,191.97 407.16,167.4" fill="#3b3c3e" />
<polygon points="350.73,194.4 375.3,194.4 377.73,196.83 377.73,221.4 375.3,223.83 350.73,223.83 348.3,221.4 348.3,196.83" fill="#3b3c3e" />
<polygon points="380.16,194.4 404.73,194.4 407.16,196.83 407.16,221.4 404.73,223.83 380.16,223.83 377.73,221.4 377.73,196.83" fill="#3b3c3e" />
<polygon points="409.59000000000003,194.4 434.16,194.4 436.59000000000003,196.83 436.59000000000003,221.4 434.16,223.83 409.59000000000003,223.83 407.16,221.4 407.16,196.83" fill="#3b3c3e" />
<polygon points="442.26000000000005,164.97 466.83000000000004,164.97 469.26000000000005,167.4 469.26000000000005,191.97 466.83000000000004,194.4 442.26000000000005,194.4 439.83000000000004,191.97 439.83000000000004,167.4" fill="#3b3c3e" />
<polygon points="471.69000000000005,164.97 496.26000000000005,164.97 498.69000000000005,167.4 498.69000000000005,191.97 496.26000000000005,194.4 471.69000000000005,194.4 469.26000000000005,191.97 469.26000000000005,167.4" fill="#3b3c3e" />
<polygon points="501.12,164.97 525.69,164.97 528.12,167.4 528.12,191.97 525.69,194.4 501.12,194.4 498.69000000000005,191.97 498.69000000000005,167.4" fill="#3b3c3e" />
<polygon points="442.26000000000005,194.4 466.83000000000004,194.4 469.26000000000005,196.83 469.26000000000005,221.4 466.83000000000004,223.83 442.26000000000005,223.83 439.83000000000004,221.4 439.83000000000004,196.83" fill="#3b3c3e" />
<polygon points="471.69000000000005,194.4 496.26000000000005,194.4 498.69000000000005,196.83 498.69000000000005,221.4 496.26000000000005,223.83 471.69000000000005,223.83 469.26000000000005,221.4 469.26000000000005,196.83" fill="#3b3c3e" />
<polygon points="501.12,194.4 525.69,194.4 528.12,196.83 528.12,221.4 525.69,223.83 501.12,223.83 498.69000000000005,221.4 498.69000000000005,196.83" fill="#3b3c3e" />
<polygon points="533.7900000000001,164.97 558.36,164.97 560.7900000000001,167.4 560.7900000000001,191.97 558.36,194.4 533.7900000000001,194.4 531.36,191.97 531.36,167.4" fill="#3b3c3e" />
<polygon points="563.22,164.97 587.7900000000001,164.97 590.22,167.4 590.22,191.97 587.7900000000001,194.4 563.22,194.4 560.7900000000001,191.97 560.7900000000001,167.4" fill="#3b3c3e" />
<polygon points="592.6500000000001,164.97 617.22,164.97 619.6500000000001,167.4 619.6500000000001,191.97 617.22,194.4 592.6500000000001,194.4 590.22,191.97 590.22,167.4" fill="#3b3c3e" />
<polygon points="533.7900000000001,194.4 558.36,194.4 560.7900000000001,196.83 560.7900000000001,221.4 558.36,223.83 533.7900000000001,223.83 531.36,221.4 531.36,196.83" fill="#3b3c3e" />
<polygon points="563.22,194.4 587.7900000000001,194.4 590.22,196.83 590.22,221.4 587.7900000000001,223.83 563.22,223.83 560.7900000000001,221.4 560.7900000000001,196.83" fill="#3b3c3e" />
<polygon points="592.6500000000001,194.4 617.22,194.4 619.6500000000001,196.83 619.6500000000001,221.4 617.22,223.83 592.6500000000001,223.83 590.22,221.4 590.22,196.83" fill="#3b3c3e" />
<polygon points="625.32,164.97 649.89,164.97 652.32,167.4 652.32,191.97 649.89,194.4 625.32,194.4 622.89,191.97 622.89,167.4" fill="#3b3c3e" />
<polygon points="654.75,164.97 679.32,164.97 681.75,167.4 681.75,191.97 679.32,194.4 654.75,194.4 652.32,191.97 652.32,167.4" fill="#3b3c3e" />
<polygon points="684.1800000000001,164.97 708.75,164.97 711.1800000000001,167.4 711.1800000000001,191.97 708.75,194.4 684.1800000000001,194.4 681.75,191.97 681.75,167.4" fill="#3b3c3e" />
<polygon points="625.32,194.4 649.89,194.4 652.32,196.83 652.32,221.4 649.89,223.83 625.32,223.83 622.89,221.4 622.89,196.83" fill="#3b3c3e" />
<polygon points="654.75,194.4 679.32,194.4 681.75,196.83 681.75,221.4 679.32,223.83 654.75,223.83 652.32,221.4 652.32,196.83" fill="#3b3c3e" />
<polygon points="684.1800000000001,194.4 708.75,194.4 711.1800000000001,196.83 711.1800000000001,221.4 708.75,223.83 684.1800000000001,223.83 681.75,221.4 681.75,196.83" fill="#3b3c3e" />
<polygon points="716.85,164.97 741.4200000000001,164.97 743.85,167.4 743.85,191.97 741.4200000000001,194.4 716.85,194.4 714.4200000000001,191.97 714.4200000000001,167.4" fill="#3b3c3e" />
<polygon points="746.2800000000001,164.97 770.85,164.97 773.2800000000001,167.4 773.2800000000001,191.97 770.85,194.4 746.2800000000001,194.4 743.85,191.97 743.85,167.4" fill="#3b3c3e" />
<polygon points="775.71,164.97 800.2800000000001,164.97 802.71,167.4 802.71,191.97 800.2800000000001,194.4 775.71,194.4 773.2800000000001,191.97 773.2800000000001,167.4" fill="#3b3c3e" />
<polygon points="716.85,194.4 741.4200000000001,194.4 743.85,196.83 743.85,221.4 741.4200000000001,223.83 716.85,223.83 714.4200000000001,221.4 714.4200000000001,196.83" fill="#3b3c3e" />
<polygon points="746.2800000000001,194.4 770.85,194.4 773.2800000000001,196.83 773.2800000000001,221.4 770.85,223.83 746.2800000000001,223.83 743.85,221.4 743.85,196.83" fill="#3b3c3e" />
<polygon points="775.71,194.4 800.2800000000001,194.4 802.71,196.83 802.71,221.4 800.2800000000001,223.83 775.71,223.83 773.2800000000001,221.4 773.2800000000001,196.83" fill="#3b3c3e" />
<polygon points="808.3800000000001,164.97 832.95,164.97 835.3800000000001,167.4 835.3800000000001,191.97 832.95,194.4 808.3800000000001,194.4 805.95,191.97 805.95,167.4" fill="#3b3c3e" />
<polygon points="837.8100000000001,164.97 862.3800000000001,164.97 864.8100000000001,167.4 864.8100000000001,191.97 862.3800000000001,194.4 837.8100000000001,194.4 835.3800000000001,191.97 835.3800000000001,167.4" fill="#3b3c3e" />
<polygon points="867.24,164.97 891.8100000000001,164.97 894.24,167.4 894.24,191.97 891.8100000000001,194.4 867.24,194.4 864.8100000000001,191.97 864.8100000000001,167.4" fill="#3b3c3e" />
<polygon points="808.3800000000001,194.4 832.95,194.4 835.3800000000001,196.83 835.3800000000001,221.4 832.95,223.83 808.3800000000001,223.83 805.95,221.4 805.95,196.83" fill="#3b3c3e" />
<polygon points="837.8100000000001,194.4 862.3800000000001,194.4 864.8100000000001,196.83 864.8100000000001,221.4 862.3800000000001,223.83 837.8100000000001,223.83 835.3800000000001,221.4 835.3800000000001,196.83" fill="#3b3c3e" />
<polygon points="867.24,194.4 891.8100000000001,194.4 894.24,196.83 894.24,221.4 891.8100000000001,223.83 867.24,223.83 864.8100000000001,221.4 864.8100000000001,196.83" fill="#3b3c3e" />
<polygon points="14.040000000000001,227.07000000000002 38.61,227.07000000000002 41.040000000000006,229.50000000000003 41.040000000000006,254.07000000000002 38.61,256.5 14.040000000000001,256.5 11.610000000000001,254.07000000000002 11.610000000000001,229.50000000000003" fill="#3b3c3e" />
<polygon points="43.470000000000006,227.07000000000002 68.04,227.07000000000002 70.47,229.50000000000003 70.47,254.07000000000002 68.04,256.5 43.470000000000006,256.5 41.040000000000006,254.07000000000002 41.040000000000006,229.50000000000003" fill="#3b3c3e" />
<polygon points="14.040000000000001,256.5 38.61,256.5 41.040000000000006,258.93 41.040000000000006,283.5 38.61,285.93 14.040000000000001,285.93 11.610000000000001,283.5 11.610000000000001,258.93" fill="#3b3c3e" />
<polygon points="43.470000000000006,256.5 68.04,256.5 70.47,258.93 70.47,283.5 68.04,285.93 43.470000000000006,285.93 41.040000000000006,283.5 41.040000000000006,258.93" fill="#3b3c3e" />
<polygon points="76.14,227.07000000000002 100.71000000000001,227.07000000000002 103.14,229.50000000000003 103.14,254.07000000000002 100.71000000000001,256.5 76.14,256.5 73.71000000000001,254.07000000000002 73.71000000000001,229.50000000000003" fill="#3b3c3e" />
<polygon points="105.57000000000001,227.07000000000002 130.14000000000001,227.07000000000002 132.57000000000002,229.50000000000003 132.57000000000002,254.07000000000002 130.14000000000001,256.5 105.57000000000001,256.5 103.14,254.07000000000002 103.14,229.50000000000003" fill="#3b3c3e" />
<polygon points="135.0,227.07000000000002 159.57000000000002,227.07000000000002 162.0,229.50000000000003 162.0,254.07000000000002 159.57000000000002,256.5 135.0,256.5 132.57000000000002,254.07000000000002 132.57000000000002,229.50000000000003" fill="#3b3c3e" />
<polygon points="76.14,256.5 100.71000000000001,256.5 103.14,258.93 103.14,283.5 100.71000000000001,285.93 76.14,285.93 73.71000000000001,283.5 73.71000000000001,258.93" fill="#3b3c3e" />
<polygon points="105.57000000000001,256.5 130.14000000000001,256.5 132.57000000000002,258.93 132.57000000000002,283.5 130.14000000000001,285.93 105.57000000000001,285.93 103.14,283.5 103.14,258.93" fill="#3b3c3e" />
<polygon points="135.0,256.5 159.57000000000002,256.5 162.0,258.93 162.0,283.5 159.57000000000002,285.93 135.0,285.93 132.57000000000002,283.5 132.57000000000002,258.93" fill="#3b3c3e" />
<polygon points="167.67000000000002,227.07000000000002 192.24,227.07000000000002 194.67000000000002,229.50000000000003 194.67000000000002,254.07000000000002 192.24,256.5 167.67000000000002,256.5 165.24,254.07000000000002 165.24,229.50000000000003" fill="#3b3c3e" />
<polygon points="197.10000000000002,227.07000000000002 221.67000000000002,227.07000000000002 224.10000000000002,229.50000000000003 224.10000000000002,254.07000000000002 221.67000000000002,256.5 197.10000000000002,256.5 194.67000000000002,254.07000000000002 194.67000000000002,229.50000000000003" fill="#3b3c3e" />
<polygon points="226.53,227.07000000000002 251.10000000000002,227.07000000000002 253.53000000000003,229.50000000000003 253.53000000000003,254.07000000000002 251.10000000000002,256.5 226.53,256.5 224.10000000000002,254.07000000000002 224.10000000000002,229.50000000000003" fill="#3b3c3e" />
<polygon points="167.67000000000002,256.5 192.24,256.5 194.67000000000002,258.93 194.67000000000002,283.5 192.24,285.93 167.67000000000002,285.93 165.24,283.5 165.24,258.93" fill="#3b3c3e" />
<polygon points="197.10000000000002,256.5 221.67000000000002,256.5 224.10000000000002,258.93 224.10000000000002,283.5 221.67000000000002,285.93 197.10000000000002,285.93 194.67000000000002,283.5 194.67000000000002,258.93" fill="#3b3c3e" />
<polygon points="226.53,256.5 251.10000000000002,256.5 253.53000000000003,258.93 253.53000000000003,283.5 251.10000000000002,285.93 226.53,285.93 224.10000000000002,283.5 224.10000000000002,258.93" fill="#3b3c3e" />
<polygon points="259.20000000000005,227.07000000000002 283.77000000000004,227.07000000000002 286.20000000000005,229.50000000000003 286.20000000000005,254.07000000000002 283.77000000000004,256.5 259.20000000000005,256.5 256.77000000000004,254.07000000000002 256.77000000000004,229.50000000000003" fill="#3b3c3e" />
<polygon points="288.63,227.07000000000002 313.20000000000005,227.07000000000002 315.63,229.50000000000003 315.63,254.07000000000002 313.20000000000005,256.5 288.63,256.5 286.20000000000005,254.07000000000002 286.20000000000005,229.50000000000003" fill="#3b3c3e" />
<polygon points="318.06,227.07000000000002 342.63,227.07000000000002 345.06,229.50000000000003 345.06,254.07000000000002 342.63,256.5 318.06,256.5 315.63,254.07000000000002 315.63,229.50000000000003" fill="#3b3c3e" />
<polygon points="259.20000000000005,256.5 283.77000000000004,256.5 286.20000000000005,258.93 286.20000000000005,283.5 283.77000000000004,285.93 259.20000000000005,285.93 256.77000000000004,283.5 256.77000000000004,258.93" fill="#3b3c3e" />
<polygon points="288.63,256.5 313.20000000000005,256.5 315.63,258.93 315.63,283.5 313.20000000000005,285.93 288.63,285.93 286.20000000000005,283.5 286.20000000000005,258.93" fill="#3b3c3e" />
<polygon points="318.06,256.5 342.63,256.5 345.06,258.93 345.06,283.5 342.63,285.93 318.06,285.93 315.63,283.5 315.63,258.93" fill="#3b3c3e" />
<polygon points="350.73,227.07000000000002 375.3,227.07000000000002 377.73,229.50000000000003 377.73,254.07000000000002 375.3,256.5 350.73,256.5 348.3,254.07000000000002 348.3,229.50000000000003" fill="#3b3c3e" />
<polygon points="380.16,227.07000000000002 404.73,227.07000000000002 407.16,229.50000000000003 407.16,254.07000000000002 404.73,256.5 380.16,256.5 377.73,254.07000000000002 377.73,229.50000000000003" fill="#3b3c3e" />
<polygon points="409.59000000000003,227.07000000000002 434.16,227.07000000000002 436.59000000000003,229.50000000000003 436.59000000000003,254.07000000000002 434.16,256.5 409.59000000000003,256.5 407.16,254.07000000000002 407.16,229.50000000000003" fill="#3b3c3e" />
<polygon points="350.73,256.5 375.3,256.5 377.73,258.93 377.73,283.5 375.3,285.93 350.73,285.93 348.3,283.5 348.3,258.93" fill="#3b3c3e" />
<polygon points="380.16,256.5 404.73,256.5 407.16,258.93 407.16,283.5 404.73,285.93 380.16,285.93 377.73,283.5 377.73,258.93" fill="#3b3c3e" />
<polygon points="409.59000000000003,256.5 434.16,256.5 436.59000000000003,258.93 436.59000000000003,283.5 434.16,285.93 409.59000000000003,285.93 407.16,283.5 407.16,258.93" fill="#3b3c3e" />
<polygon points="442.26000000000005,227.07000000000002 466.83000000000004,227.07000000000002 469.26000000000005,229.50000000000003 469.26000000000005,254.07000000000002 466.83000000000004,256.5 442.26000000000005,256.5 439.83000000000004,254.07000000000002 439.83000000000004,229.50000000000003" fill="#3b3c3e" />
<polygon points="471.69000000000005,227.07000000000002 496.26000000000005,227.07000000000002 498.69000000000005,229.50000000000003 498.69000000000005,254.07000000000002 496.26000000000005,256.5 471.69000000000005,256.5 469.26000000000005,254.07000000000002 469.26000000000005,229.50000000000003" fill="#3b3c3e" />
<polygon points="501.12,227.07000000000002 525.69,227.07000000000002 528.12,229.50000000000003 528.12,254.07000000000002 525.69,256.5 501.12,256.5 498.69000000000005,254.07000000000002 498.69000000000005,229.50000000000003" fill="#3b3c3e" />
<polygon points="442.26000000000005,256.5 466.83000000000004,256.5 469.26000000000005,258.93 469.26000000000005,283.5 466.83000000000004,285.93 442.26000000000005,285.93 439.83000000000004,283.5 439.83000000000004,258.93" fill="#3b3c3e" />
<polygon points="471.69000000000005,256.5 496.26000000000005,256.5 498.69000000000005,258.93 498.69000000000005,283.5 496.26000000000005,285.93 471.69000000000005,285.93 469.26000000000005,283.5 469.26000000000005,258.93" fill="#3b3c3e" />
<polygon points="501.12,256.5 525.69,256.5 528.12,258.93 528.12,283.5 525.69,285.93 501.12,285.93 498.69000000000005,283.5 498.69000000000005,258.93" fill="#3b3c3e" />
<polygon points="533.7900000000001,227.07000000000002 558.36,227.07000000000002 560.7900000000001,229.50000000000003 560.7900000000001,254.07000000000002 558.36,256.5 533.7900000000001,256.5 531.36,254.07000000000002 531.36,229.50000000000003" fill="#3b3c3e" />
<polygon points="563.22,227.07000000000002 587.7900000000001,227.07000000000002 590.22,229.50000000000003 590.22,254.07000000000002 587.7900000000001,256.5 563.22,256.5 560.7900000000001,254.07000000000002 560.7900000000001,229.50000000000003" fill="#3b3c3e" />
<polygon points="592.6500000000001,227.07000000000002 617.22,227.07000000000002 619.6500000000001,229.50000000000003 619.6500000000001,254.07000000000002 617.22,256.5 592.6500000000001,256.5 590.22,254.07000000000002 590.22,229.50000000000003" fill="#3b3c3e" />
<polygon points="533.7900000000001,256.5 558.36,256.5 560.7900000000001,258.93 560.7900000000001,283.5 558.36,285.93 533.7900000000001,285.93 531.36,283.5 531.36,258.93" fill="#3b3c3e" />
<polygon points="563.22,256.5 587.7900000000001,256.5 590.22,258.93 590.22,283.5 587.7900000000001,285.93 563.22,285.93 560.7900000000001,283.5 560.7900000000001,258.93" fill="#3b3c3e" />
<polygon points="592.6500000000001,256.5 617.22,256.5 619.6500000000001,258.93 619.6500000000001,283.5 617.22,285.93 592.6500000000001,285.93 590.22,283.5 590.22,258.93" fill="#3b3c3e" />
<polygon points="625.32,227.07000000000002 649.89,227.07000000000002 652.32,229.50000000000003 652.32,254.07000000000002 649.89,256.5 625.32,256.5 622.89,254.07000000000002 622.89,229.50000000000003" fill="#3b3c3e" />
<polygon points="654.75,227.07000000000002 679.32,227.07000000000002 681.75,229.50000000000003 681.75,254.07000000000002 679.32,256.5 654.75,256.5 652.32,254.07000000000002 652.32,229.50000000000003" fill="#3b3c3e" />
<polygon points="684.1800000000001,227.07000000000002 708.75,227.07000000000002 711.1800000000001,229.50000000000003 711.1800000000001,254.07000000000002 708.75,256.5 684.1800000000001,256.5 681.75,254.07000000000002 681.75,229.50000000000003" fill="#3b3c3e" />
<polygon points="625.32,256.5 649.89,256.5 652.32,258.93 652.32,283.5 649.89,285.93 625.32,285.93 622.89,283.5 622.89,258.93" fill="#3b3c3e" />
<polygon points="654.75,256.5 679.32,256.5 681.75,258.93 681.75,283.5 679.32,285.93 654.75,285.93 652.32,283.5 652.32,258.93" fill="#3b3c3e" />
<polygon points="684.1800000000001,256.5 708.75,256.5 711.1800000000001,258.93 711.1800000000001,283.5 708.75,285.93 684.1800000000001,285.93 681.75,283.5 681.75,258.93" fill="#3b3c3e" />
<polygon points="716.85,227.07000000000002 741.4200000000001,227.07000000000002 743.85,229.50000000000003 743.85,254.07000000000002 741.4200000000001,256.5 716.85,256.5 714.4200000000001,254.07000000000002 714.4200000000001,229.50000000000003" fill="#3b3c3e" />
<polygon points="746.2800000000001,227.07000000000002 770.85,227.07000000000002 773.2800000000001,229.50000000000003 773.2800000000001,254.07000000000002 770.85,256.5 746.2800000000001,256.5 743.85,254.07000000000002 743.85,229.50000000000003" fill="#3b3c3e" />
<polygon points="775.71,227.07000000000002 800.2800000000001,227.07000000000002 802.71,229.50000000000003 802.71,254.07000000000002 800.2800000000001,256.5 775.71,256.5 773.2800000000001,254.07000000000002 773.2800000000001,229.50000000000003" fill="#3b3c3e" />
<polygon points="716.85,256.5 741.4200000000001,256.5 743.85,258.93 743.85,283.5 741.4200000000001,285.93 716.85,285.93 714.4200000000001,283.5 714.4200000000001,258.93" fill="#3b3c3e" />
<polygon points="746.2800000000001,256.5 770.85,256.5 773.2800000000001,258.93 773.2800000000001,283.5 770.85,285.93 746.2800000000001,285.93 743.85,283.5 743.85,258.93" fill="#3b3c3e" />
<polygon points="775.71,256.5 800.2800000000001,256.5 802.71,258.93 802.71,283.5 800.2800000000001,285.93 775.71,285.93 773.2800000000001,283.5 773.2800000000001,258.93" fill="#3b3c3e" />
<polygon points="808.3800000000001,227.07000000000002 832.95,227.07000000000002 835.3800000000001,229.50000000000003 835.3800000000001,254.07000000000002 832.95,256.5 808.3800000000001,256.5 805.95,254.07000000000002 805.95,229.50000000000003" fill="#3b3c3e" />
<polygon points="837.8100000000001,227.07000000000002 862.3800000000001,227.07000000000002 864.8100000000001,229.50000000000003 864.8100000000001,254.07000000000002 862.3800000000001,256.5 837.8100000000001,256.5 835.3800000000001,254.07000000000002 835.3800000000001,229.50000000000003" fill="#3b3c3e" />
<polygon points="867.24,227.07000000000002 891.8100000000001,227.07000000000002 894.24,229.50000000000003 894.24,254.07000000000002 891.8100000000001,256.5 867.24,256.5 864.8100000000001,254.07000000000002 864.8100000000001,229.50000000000003" fill="#3b3c3e" />
<polygon points="808.3800000000001,256.5 832.95,256.5 835.3800000000001,258.93 835.3800000000001,283.5 832.95,285.93 808.3800000000001,285.93 805.95,283.5 805.95,258.93" fill="#3b3c3e" />
<polygon points="837.8100000000001,256.5 862.3800000000001,256.5 864.8100000000001,258.93 864.8100000000001,283.5 862.3800000000001,285.93 837.8100000000001,285.93 835.3800000000001,283.5 835.3800000000001,258.93" fill="#3b3c3e" />
<polygon points="867.24,256.5 891.8100000000001,256.5 894.24,258.93 894.24,283.5 891.8100000000001,285.93 867.24,285.93 864.8100000000001,283.5 864.8100000000001,258.93" fill="#3b3c3e" />
<polygon points="899.9100000000001,30.51 924.48,30.51 926.9100000000001,32.940000000000005 926.9100000000001,57.510000000000005 924.48,59.940000000000005 899.9100000000001,59.940000000000005 897.48,57.510000000000005 897.48,32.940000000000005" fill="#3b3c3e" />
<polygon points="929.34,30.51 953.9100000000001,30.51 956.34,32.940000000000005 956.34,57.510000000000005 953.9100000000001,59.940000000000005 929.34,59.940000000000005 926.9100000000001,57.510000000000005 926.9100000000001,32.940000000000005" fill="#3b3c3e" />
<polygon points="899.9100000000001,59.940000000000005 924.48,59.940000000000005 926.9100000000001,62.370000000000005 926.9100000000001,86.94000000000001 924.48,89.37 899.9100000000001,89.37 897.48,86.94000000000001 897.48,62.370000000000005" fill="#3b3c3e" />
<polygon points="929.34,59.940000000000005 953.9100000000001,59.940000000000005 956.34,62.370000000000005 956.34,86.94000000000001 953.9100000000001,89.37 929.34,89.37 926.9100000000001,86.94000000000001 926.9100000000001,62.370000000000005" fill="#3b3c3e" />
<polygon points="899.9100000000001,92.61 924.48,92.61 926.9100000000001,95.04 926.9100000000001,119.61000000000001 924.48,122.04 899.9100000000001,122.04 897.48,119.61000000000001 897.48,95.04" fill="#3b3c3e" />
<polygon points="929.34,92.61 953.9100000000001,92.61 956.34,95.04 956.34,119.61000000000001 953.9100000000001,122.04 929.34,122.04 926.9100000000001,119.61000000000001 926.9100000000001,95.04" fill="#3b3c3e" />
<polygon points="899.9100000000001,122.04 924.48,122.04 926.9100000000001,124.47000000000001 926.9100000000001,149.04000000000002 924.48,151.47 899.9100000000001,151.47 897.48,149.04000000000002 897.48,124.47000000000001" fill="#3b3c3e" />
<polygon points="929.34,122.04 953.9100000000001,122.04 956.34,124.47000000000001 956.34,149.04000000000002 953.9100000000001,151.47 929.34,151.47 926.9100000000001,149.04000000000002 926.9100000000001,124.47000000000001" fill="#3b3c3e" />
<polygon points="899.9100000000001,151.47 924.48,151.47 926.9100000000001,153.9 926.9100000000001,178.47 924.48,180.9 899.9100000000001,180.9 897.48,178.47 897.48,153.9" fill="#3b3c3e" />
<polygon points="929.34,151.47 953.9100000000001,151.47 956.34,153.9 956.34,178.47 953.9100000000001,180.9 929.34,180.9 926.9100000000001,178.47 926.9100000000001,153.9" fill="#3b3c3e" />
<polygon points="899.9100000000001,184.14000000000001 924.48,184.14000000000001 926.9100000000001,186.57000000000002 926.9100000000001,211.14000000000001 924.48,213.57000000000002 899.9100000000001,213.57000000000002 897.48,211.14000000000001 897.48,186.57000000000002" fill="#3b3c3e" />
<polygon points="929.34,184.14000000000001 953.9100000000001,184.14000000000001 956.34,186.57000000000002 956.34,211.14000000000001 953.9100000000001,213.57000000000002 929.34,213.57000000000002 926.9100000000001,211.14000000000001 926.9100000000001,186.57000000000002" fill="#3b3c3e" />
<polygon points="899.9100000000001,213.57000000000002 924.48,213.57000000000002 926.9100000000001,216.0 926.9100000000001,240.57000000000002 924.48,243.00000000000003 899.9100000000001,243.00000000000003 897.48,240.57000000000002 897.48,216.0" fill="#3b3c3e" />
<polygon points="929.34,213.57000000000002 953.9100000000001,213.57000000000002 956.34,216.0 956.34,240.57000000000002 953.9100000000001,243.00000000000003 929.34,243.00000000000003 926.9100000000001,240.57000000000002 926.9100000000001,216.0" fill="#3b3c3e" />
<polygon points="962.0100000000001,82.35000000000001 986.58,82.35000000000001 989.0100000000001,84.78 989.0100000000001,109.35000000000001 986.58,111.78 962.0100000000001,111.78 959.58,109.35000000000001 959.58,84.78" fill="#3b3c3e" />
<polygon points="962.0100000000001,115.02000000000001 986.58,115.02000000000001 989.0100000000001,117.45 989.0100000000001,142.02 986.58,144.45000000000002 962.0100000000001,144.45000000000002 959.58,142.02 959.58,117.45" fill="#3b3c3e" />
<polygon points="991.44,115.02000000000001 1016.0100000000001,115.02000000000001 1018.44,117.45 1018.44,142.02 1016.0100000000001,144.45000000000002 991.44,144.45000000000002 989.0100000000001,142.02 989.0100000000001,117.45" fill="#3b3c3e" />
<polygon points="962.0100000000001,144.45000000000002 986.58,144.45000000000002 989.0100000000001,146.88 989.0100000000001,171.45000000000002 986.58,173.88000000000002 962.0100000000001,173.88000000000002 959.58,171.45000000000002 959.58,146.88" fill="#3b3c3e" />
<polygon points="991.44,144.45000000000002 1016.0100000000001,144.45000000000002 1018.44,146.88 1018.44,171.45000000000002 1016.0100000000001,173.88000000000002 991.44,173.88000000000002 989.0100000000001,171.45000000000002 989.0100000000001,146.88" fill="#3b3c3e" />
<polygon points="962.0100000000001,173.88000000000002 986.58,173.88000000000002 989.0100000000001,176.31 989.0100000000001,200.88000000000002 986.58,203.31 962.0100000000001,203.31 959.58,200.88000000000002 959.58,176.31" fill="#3b3c3e" />
<polygon points="991.44,173.88000000000002 1016.0100000000001,173.88000000000002 1018.44,176.31 1018.44,200.88000000000002 1016.0100000000001,203.31 991.44,203.31 989.0100000000001,200.88000000000002 989.0100000000001,176.31" fill="#3b3c3e" />
<polygon points="962.0100000000001,206.55 986.58,206.55 989.0100000000001,208.98000000000002 989.0100000000001,233.55 986.58,235.98000000000002 962.0100000000001,235.98000000000002 959.58,233.55 959.58,208.98000000000002" fill="#3b3c3e" />
</g></svg>